<svg width="1875.5000000000002" height="948.2" xmlns="http://www.w3.org/2000/svg" xmlns:xlink="http://www.w3.org/1999/xlink"><line x1="210.4375" y1="6.0" x2="32.125" y2="29.0" style="stroke:black; stroke-width:1px;" />
<line x1="210.4375" y1="6.0" x2="61.125" y2="29.0" style="stroke:black; stroke-width:1px;" />
<line x1="210.4375" y1="6.0" x2="87.625" y2="29.0" style="stroke:black; stroke-width:1px;" />
<line x1="210.4375" y1="6.0" x2="131.125" y2="29.0" style="stroke:black; stroke-width:1px;" />
<line x1="131.125" y1="35.0" x2="54.0" y2="58.0" style="stroke:black; stroke-width:1px;" />
<line x1="54.0" y1="64.0" x2="20.5" y2="87.0" style="stroke:black; stroke-width:1px;" />
<line x1="54.0" y1="64.0" x2="51.5" y2="87.0" style="stroke:black; stroke-width:1px;" />
<line x1="54.0" y1="64.0" x2="87.5" y2="87.0" style="stroke:black; stroke-width:1px;" />
<line x1="87.5" y1="93.0" x2="87.5" y2="116.0" style="stroke:black; stroke-width:1px;" />
<line x1="131.125" y1="35.0" x2="131.125" y2="58.0" style="stroke:black; stroke-width:1px;" />
<line x1="131.125" y1="35.0" x2="208.25" y2="58.0" style="stroke:black; stroke-width:1px;" />
<line x1="208.25" y1="64.0" x2="126.5" y2="87.0" style="stroke:black; stroke-width:1px;" />
<line x1="208.25" y1="64.0" x2="160.5" y2="87.0" style="stroke:black; stroke-width:1px;" />
<line x1="208.25" y1="64.0" x2="191.5" y2="87.0" style="stroke:black; stroke-width:1px;" />
<line x1="208.25" y1="64.0" x2="227.5" y2="87.0" style="stroke:black; stroke-width:1px;" />
<line x1="227.5" y1="93.0" x2="227.5" y2="116.0" style="stroke:black; stroke-width:1px;" />
<line x1="208.25" y1="64.0" x2="290.0" y2="87.0" style="stroke:black; stroke-width:1px;" />
<line x1="290.0" y1="93.0" x2="269.0" y2="116.0" style="stroke:black; stroke-width:1px;" />
<line x1="290.0" y1="93.0" x2="311.0" y2="116.0" style="stroke:black; stroke-width:1px;" />
<line x1="311.0" y1="122.0" x2="311.0" y2="145.0" style="stroke:black; stroke-width:1px;" />
<line x1="210.4375" y1="6.0" x2="190.78125" y2="29.0" style="stroke:black; stroke-width:1px;" />
<line x1="210.4375" y1="6.0" x2="221.9375" y2="29.0" style="stroke:black; stroke-width:1px;" />
<line x1="210.4375" y1="6.0" x2="255.59375" y2="29.0" style="stroke:black; stroke-width:1px;" />
<line x1="210.4375" y1="6.0" x2="322.75" y2="29.0" style="stroke:black; stroke-width:1px;" />
<line x1="322.75" y1="35.0" x2="252.25" y2="58.0" style="stroke:black; stroke-width:1px;" />
<line x1="322.75" y1="35.0" x2="287.25" y2="58.0" style="stroke:black; stroke-width:1px;" />
<line x1="322.75" y1="35.0" x2="318.25" y2="58.0" style="stroke:black; stroke-width:1px;" />
<line x1="322.75" y1="35.0" x2="354.25" y2="58.0" style="stroke:black; stroke-width:1px;" />
<line x1="354.25" y1="64.0" x2="354.25" y2="87.0" style="stroke:black; stroke-width:1px;" />
<line x1="322.75" y1="35.0" x2="393.25" y2="58.0" style="stroke:black; stroke-width:1px;" />
<line x1="210.4375" y1="6.0" x2="371.25" y2="29.0" style="stroke:black; stroke-width:1px;" />
<line x1="210.4375" y1="6.0" x2="388.75" y2="29.0" style="stroke:black; stroke-width:1px;" />
<rect x="98.625" y="29.0" width="65.0" height="12.0" style="fill:orange; stroke:rgb(0,0,0);" rx="1"/>
<text x="100" y="38" style="font-family:sans-serif;font-size:10px;">
functionArgs
</text>
<rect x="202.0" y="87.0" width="51.0" height="12.0" style="fill:orange; stroke:rgb(0,0,0);" rx="1"/>
<text x="204" y="96" style="font-family:sans-serif;font-size:10px;">
varTypes
</text>
<rect x="220.0" y="116.0" width="15.0" height="12.0" style="fill:orange; stroke:rgb(0,0,0);" rx="1"/>
<text x="222" y="125" style="font-family:sans-serif;font-size:10px;">
int
</text>
<rect x="303.0" y="145.0" width="16.0" height="12.0" style="fill:orange; stroke:rgb(0,0,0);" rx="1"/>
<text x="305" y="154" style="font-family:sans-serif;font-size:10px;">
20
</text>
<rect x="386.75" y="58.0" width="13.0" height="12.0" style="fill:orange; stroke:rgb(0,0,0);" rx="1"/>
<text x="388" y="67" style="font-family:sans-serif;font-size:10px;">
\n
</text>
<rect x="266.75" y="58.0" width="41.0" height="12.0" style="fill:orange; stroke:rgb(0,0,0);" rx="1"/>
<text x="268" y="67" style="font-family:sans-serif;font-size:10px;">
numero
</text>
<rect x="264.0" y="116.0" width="10.0" height="12.0" style="fill:orange; stroke:rgb(0,0,0);" rx="1"/>
<text x="266" y="125" style="font-family:sans-serif;font-size:10px;">
=
</text>
<rect x="186.78125" y="29.0" width="8.0" height="12.0" style="fill:orange; stroke:rgb(0,0,0);" rx="1"/>
<text x="188" y="38" style="font-family:sans-serif;font-size:10px;">
)
</text>
<rect x="285.25" y="29.0" width="75.0" height="12.0" style="fill:orange; stroke:rgb(0,0,0);" rx="1"/>
<text x="287" y="38" style="font-family:sans-serif;font-size:10px;">
varDeclaration
</text>
<rect x="328.75" y="58.0" width="51.0" height="12.0" style="fill:orange; stroke:rgb(0,0,0);" rx="1"/>
<text x="330" y="67" style="font-family:sans-serif;font-size:10px;">
varTypes
</text>
<rect x="25.625" y="29.0" width="13.0" height="12.0" style="fill:orange; stroke:rgb(0,0,0);" rx="1"/>
<text x="27" y="38" style="font-family:sans-serif;font-size:10px;">
fn
</text>
<rect x="62.0" y="87.0" width="51.0" height="12.0" style="fill:orange; stroke:rgb(0,0,0);" rx="1"/>
<text x="64" y="96" style="font-family:sans-serif;font-size:10px;">
varTypes
</text>
<rect x="45.625" y="29.0" width="31.0" height="12.0" style="fill:orange; stroke:rgb(0,0,0);" rx="1"/>
<text x="47" y="38" style="font-family:sans-serif;font-size:10px;">
soma
</text>
<rect x="346.75" y="87.0" width="15.0" height="12.0" style="fill:orange; stroke:rgb(0,0,0);" rx="1"/>
<text x="348" y="96" style="font-family:sans-serif;font-size:10px;">
int
</text>
<rect x="260.0" y="87.0" width="60.0" height="12.0" style="fill:orange; stroke:rgb(0,0,0);" rx="1"/>
<text x="262" y="96" style="font-family:sans-serif;font-size:10px;">
assignment
</text>
<rect x="217.9375" y="29.0" width="8.0" height="12.0" style="fill:orange; stroke:rgb(0,0,0);" rx="1"/>
<text x="219" y="38" style="font-family:sans-serif;font-size:10px;">
{
</text>
<rect x="140.0" y="87.0" width="41.0" height="12.0" style="fill:orange; stroke:rgb(0,0,0);" rx="1"/>
<text x="142" y="96" style="font-family:sans-serif;font-size:10px;">
numero
</text>
<rect x="314.75" y="58.0" width="7.0" height="12.0" style="fill:orange; stroke:rgb(0,0,0);" rx="1"/>
<text x="316" y="67" style="font-family:sans-serif;font-size:10px;">
:
</text>
<rect x="382.25" y="29.0" width="13.0" height="12.0" style="fill:orange; stroke:rgb(0,0,0);" rx="1"/>
<text x="384" y="38" style="font-family:sans-serif;font-size:10px;">
\n
</text>
<rect x="244.75" y="58.0" width="15.0" height="12.0" style="fill:orange; stroke:rgb(0,0,0);" rx="1"/>
<text x="246" y="67" style="font-family:sans-serif;font-size:10px;">
let
</text>
<rect x="281.0" y="116.0" width="60.0" height="12.0" style="fill:orange; stroke:rgb(0,0,0);" rx="1"/>
<text x="283" y="125" style="font-family:sans-serif;font-size:10px;">
dataFormat
</text>
<rect x="178.75" y="58.0" width="59.0" height="12.0" style="fill:orange; stroke:rgb(0,0,0);" rx="1"/>
<text x="180" y="67" style="font-family:sans-serif;font-size:10px;">
functionArg
</text>
<rect x="188.0" y="87.0" width="7.0" height="12.0" style="fill:orange; stroke:rgb(0,0,0);" rx="1"/>
<text x="190" y="96" style="font-family:sans-serif;font-size:10px;">
:
</text>
<rect x="249.09375" y="29.0" width="13.0" height="12.0" style="fill:orange; stroke:rgb(0,0,0);" rx="1"/>
<text x="251" y="38" style="font-family:sans-serif;font-size:10px;">
\n
</text>
<rect x="161.9375" y="0.0" width="97.0" height="12.0" style="fill:orange; stroke:rgb(0,0,0);" rx="1"/>
<text x="163" y="9" style="font-family:sans-serif;font-size:10px;">
functionDeclaration
</text>
<rect x="0.0" y="87.0" width="41.0" height="12.0" style="fill:orange; stroke:rgb(0,0,0);" rx="1"/>
<text x="2" y="96" style="font-family:sans-serif;font-size:10px;">
numero
</text>
<rect x="127.625" y="58.0" width="7.0" height="12.0" style="fill:orange; stroke:rgb(0,0,0);" rx="1"/>
<text x="129" y="67" style="font-family:sans-serif;font-size:10px;">
,
</text>
<rect x="24.5" y="58.0" width="59.0" height="12.0" style="fill:orange; stroke:rgb(0,0,0);" rx="1"/>
<text x="26" y="67" style="font-family:sans-serif;font-size:10px;">
functionArg
</text>
<rect x="80.0" y="116.0" width="15.0" height="12.0" style="fill:orange; stroke:rgb(0,0,0);" rx="1"/>
<text x="82" y="125" style="font-family:sans-serif;font-size:10px;">
int
</text>
<rect x="48.0" y="87.0" width="7.0" height="12.0" style="fill:orange; stroke:rgb(0,0,0);" rx="1"/>
<text x="50" y="96" style="font-family:sans-serif;font-size:10px;">
:
</text>
<rect x="120.0" y="87.0" width="13.0" height="12.0" style="fill:orange; stroke:rgb(0,0,0);" rx="1"/>
<text x="122" y="96" style="font-family:sans-serif;font-size:10px;">
\n
</text>
<rect x="83.625" y="29.0" width="8.0" height="12.0" style="fill:orange; stroke:rgb(0,0,0);" rx="1"/>
<text x="85" y="38" style="font-family:sans-serif;font-size:10px;">
(
</text>
<rect x="367.25" y="29.0" width="8.0" height="12.0" style="fill:orange; stroke:rgb(0,0,0);" rx="1"/>
<text x="369" y="38" style="font-family:sans-serif;font-size:10px;">
}
</text>
</svg>